HIERARCHY
ROOT pelvis
{
  OFFSET 0 100 0
  CHANNELS 6 Xposition Yposition Zposition Zrotation Xrotation Yrotation
  JOINT pelvis_right_femur
  {
    OFFSET -10.78128 -3.44521 -0.5502486
    CHANNELS 3 Zrotation Xrotation Yrotation
    JOINT right_femur_tibia
    {
      OFFSET -0.8047443 -44.0398 -0.1307829
      CHANNELS 3 Zrotation Xrotation Yrotation
      JOINT right_tibia_foot
      {
        OFFSET 3.006224 -47.83518 -5
        CHANNELS 3 Zrotation Xrotation Yrotation
        End Site
        {
          OFFSET 0 -5 15
        }
      }
    }
  }
  JOINT pelvis_left_femur
  {
    OFFSET 10.78128 -3.44521 -0.5502486
    CHANNELS 3 Zrotation Xrotation Yrotation
    JOINT left_femur_tibia
    {
      OFFSET 0.8047443 -44.0398 -0.1307829
      CHANNELS 3 Zrotation Xrotation Yrotation
      JOINT left_tibia_foot
      {
        OFFSET -4.370144 -48.10324 -4.275266
        CHANNELS 3 Zrotation Xrotation Yrotation
        End Site
        {
          OFFSET 0 -5 15
        }
      }
    }
  }
  JOINT pelvis_spine1
  {
    OFFSET 0 6.468898 -3.129235
    CHANNELS 3 Zrotation Xrotation Yrotation
    JOINT spine1
    {
      OFFSET 0 23.15396 4.99043
      CHANNELS 3 Zrotation Xrotation Yrotation
      JOINT spine2
      {
        OFFSET 0 20.79997 -5.064912
        CHANNELS 3 Zrotation Xrotation Yrotation
        JOINT neck
        {
          OFFSET 0 14.38658 9.616178
          CHANNELS 3 Zrotation Xrotation Yrotation
          End Site
          {
            OFFSET 0 20 0
          }
        }
      }
      JOINT right_manubrium
      {
        OFFSET -5.722621 16.35077 3.967754
        CHANNELS 3 Zrotation Xrotation Yrotation
        JOINT right_clavicle
        {
          OFFSET -13.16364 1.694482 -4.693211
          CHANNELS 3 Zrotation Xrotation Yrotation
          JOINT right_humerus
          {
            OFFSET -28.5034 -0.3100689 -2.792744
            CHANNELS 3 Zrotation Xrotation Yrotation
            JOINT right_radius
            {
              OFFSET -25.15693 0.02248979 -1.271978
              CHANNELS 3 Zrotation Xrotation Yrotation
              End Site
              {
                OFFSET -15 0 0
              }
            }
          }
        }
      }
      JOINT left_manubrium
      {
        OFFSET 5.722621 16.35077 3.967754
        CHANNELS 3 Zrotation Xrotation Yrotation
        JOINT left_clavicle
        {
          OFFSET 13.16364 1.694482 -4.693211
          CHANNELS 3 Zrotation Xrotation Yrotation
          JOINT left_humerus
          {
            OFFSET 29.39168 -1.063119 -2.237045
            CHANNELS 3 Zrotation Xrotation Yrotation
            JOINT left_radius
            {
              OFFSET 24.59957 -0.9528479 0.9047498
              CHANNELS 3 Zrotation Xrotation Yrotation
              End Site
              {
                OFFSET 15 -0 -0
              }
            }
          }
        }
      }
    }
  }
}
MOTION
Frames: 13
Frame Time: 0.0416666666667
1556.709 98.2605 2476.176 4.02384 -1.82704 69.544 3.426853 -26.55167 2.375271 -0 12.79999 -0 -1.700683 -5.167591 -8.154071 -3.772825 19.51542 -9.51223 -0 25.42635 -0 -9.391771 -17.55124 11.73458 -1.027009 0.4138177 1.560015 1.458968 7.746621 -7.949923 2.2392 22.28916 6.342241 2.267223 -18.07649 8.71689 1.736508 -12.54998 9.185624 91.9176 27.4575 -23.38507 -0 0 6.677223 -17.82602 13.90432 7.734822 7.21648 -21.81168 -3.515455 -81.54777 26.17131 2.542217 0 0 -27.08307 2.174564 9.651507 10.82641
1562.927 98.16522 2479.139 4.383735 -2.25347 69.59313 4.219613 -23.05225 3.627076 -0 14.98589 -0 -2.607641 -5.702651 -8.134322 -3.407346 18.4143 -9.96234 -0 33.71531 -0 -10.36866 -14.92211 12.07807 -0.7007467 0.4682069 1.575901 1.460438 7.585148 -7.476238 2.537649 22.63841 6.02148 2.206575 -18.13863 8.79962 2.140751 -12.00897 8.971213 91.547 27.88648 -22.6481 -0 0 6.031549 -16.45077 13.68274 7.107041 6.670186 -20.76879 -2.929523 -82.62413 26.92212 3.592038 0 0 -24.27971 2.257295 9.994079 10.98182
1569.15 98.70952 2482.146 5.556605 -2.713438 69.42851 4.657211 -17.71636 4.679477 -0 18.14623 -0 -3.4088 -6.293609 -8.074217 -3.170992 15.72046 -10.06421 -0 43.14989 -0 -10.83084 -11.97735 13.05088 -0.5018622 0.6054334 1.877995 1.289288 7.754907 -6.781169 2.830904 23.20176 5.595297 2.120972 -17.91751 8.728557 2.33092 -11.82727 8.942829 91.09266 27.68661 -21.42184 -0 0 5.735019 -15.72143 13.33302 6.704177 5.945073 -19.6996 -2.645938 -83.90106 27.17182 5.041782 0 0 -21.12037 2.400987 10.27803 10.86546
1575.188 99.77504 2485.111 7.28171 -3.094879 69.03525 4.752692 -11.21864 5.426845 -0 20.71007 -0 -3.808194 -7.370604 -7.923129 -3.026343 11.13356 -9.620097 -0 52.09715 -0 -10.63473 -9.235091 14.53829 -0.4679846 0.8272754 2.579205 0.9721091 8.26149 -5.971759 3.033495 23.83875 5.137803 2.030172 -17.45574 8.464247 2.266451 -12.19172 9.192762 90.49727 26.93628 -19.87496 -0 0 6.093615 -15.88298 12.98226 6.642862 5.214542 -18.84124 -2.706868 -85.20574 26.82401 6.793613 0 0 -18.43583 2.506985 10.35636 10.56146
1580.893 101.0709 2487.95 8.904367 -3.284947 68.41439 4.629919 -4.604817 5.914483 -0 21.37757 -0 -3.528608 -9.298457 -7.611949 -2.813693 4.83619 -8.66534 -0 58.18599 -0 -9.912798 -7.220482 16.19558 -0.5858561 1.082896 3.676329 0.5872877 8.91717 -5.199108 3.070137 24.30115 4.778965 1.962259 -16.926 8.063301 2.065612 -13.1576 9.685769 89.57446 26.09189 -18.1631 -0 0 7.433241 -16.87638 12.8218 7.010496 4.66445 -18.27111 -2.950795 -86.46712 26.16527 8.908968 0 0 -16.79862 2.293981 10.08608 10.51794
1586.29 102.199 2490.616 9.787504 -3.219774 67.59891 4.389213 0.9582501 6.094647 -0 19.67068 -0 -2.531758 -11.8579 -7.047227 -2.38652 -2.221671 -7.377085 -0 59.22821 -0 -8.916869 -6.341304 17.613 -0.7995248 1.293452 4.973454 0.2238388 9.455467 -4.592236 2.927208 24.39329 4.62602 1.933327 -16.52876 7.649543 1.817251 -14.57882 10.25947 88.2466 25.51882 -16.39318 -0 0 9.753866 -18.48041 12.91091 7.845201 4.450001 -17.96332 -3.164604 -87.59575 25.46017 11.27387 0 0 -16.3134 1.695408 9.448846 10.94609
1591.581 102.8135 2493.114 9.675988 -2.909333 66.67634 4.084405 4.813455 5.810568 -0 16.23442 -0 -1.128727 -14.17342 -6.127347 -1.739679 -8.836771 -5.970328 -0 54.60436 -0 -7.851477 -6.641616 18.52472 -1.035251 1.389849 6.187769 -0.07156125 9.724935 -4.19041 2.652894 24.08704 4.71178 1.95992 -16.41882 7.329965 1.512521 -16.20636 10.73635 86.66458 25.27931 -14.61444 -0 0 12.65857 -20.46118 13.10367 9.116912 4.611859 -17.85528 -3.235066 -88.5217 24.73617 13.66468 0 0 -16.58551 0.9786463 8.593623 11.60214
1596.99 102.7897 2495.466 8.752184 -2.454849 65.7679 3.737138 7.546028 5.129784 -0 12.83112 -0 0.1103798 -15.43787 -4.841044 -0.9845183 -14.4745 -4.752969 -0 46.07687 -0 -6.916342 -7.546412 18.97846 -1.227438 1.340603 7.140556 -0.3104906 9.739534 -3.899044 2.332153 23.52851 4.979957 2.063654 -16.66998 7.144886 1.207142 -17.83353 11.01977 84.98183 25.38167 -12.71606 -0 0 15.66764 -22.46053 13.17923 10.68008 4.977049 -17.74816 -3.105739 -89.475 24.06843 16.24297 0 0 -16.66326 0.3689484 7.79559 12.29269
1602.637 102.2464 2497.689 7.468167 -2.019506 64.96669 3.352597 10.43513 4.441622 -0 11.28619 -0 0.7280439 -15.62895 -3.358497 -0.2628026 -19.25993 -4.049207 -0 36.69097 -0 -6.31462 -8.216425 19.26483 -1.346715 1.171034 7.801381 -0.5261717 9.565057 -3.559802 2.06842 22.95212 5.300229 2.227478 -17.2068 7.092529 1.0365 -19.30104 11.08952 83.22542 25.82511 -10.50138 -0 0 18.45519 -24.00438 13.01966 12.26246 5.26617 -17.33849 -2.727714 -90.8394 23.67093 19.32667 0 0 -15.53262 -0.1410085 7.299678 13.08223
1608.547 101.4088 2499.81 6.288774 -1.719295 64.31148 2.927148 13.8174 4.064407 -0 12.21267 -0 0.7755554 -15.19628 -1.990916 0.2550701 -23.09968 -3.954899 -0 28.72063 -0 -6.100257 -8.336896 19.59173 -1.417319 0.9544406 8.192006 -0.734223 9.253969 -3.117177 1.937094 22.53376 5.55861 2.386682 -17.8086 7.168498 1.028704 -20.42479 10.96808 81.52395 26.38798 -8.078789 -0 0 20.7689 -24.87947 12.67828 13.5846 5.349636 -16.52788 -2.156913 -92.55287 23.57408 22.57442 0 0 -13.10805 -0.5710034 7.12273 13.92037
1614.712 100.4992 2501.878 5.512932 -1.559572 63.8218 2.438816 16.78816 3.995605 -0 15.3276 -0 0.6705628 -14.24948 -1.02713 0.3602805 -25.48767 -4.329308 -0 23.14543 -0 -6.122755 -8.212528 19.91531 -1.49796 0.7620633 8.34104 -0.9398245 8.905639 -2.660132 1.936798 22.3148 5.746582 2.498865 -18.26884 7.361454 1.099397 -21.04045 10.73086 80.21405 26.74904 -5.971287 -0 0 22.35304 -25.3068 12.29474 14.5003 5.284173 -15.53927 -1.594623 -94.04934 23.57749 25.10424 0 0 -10.28524 -0.8339687 7.064723 14.546
1621.111 99.72636 2503.938 5.268605 -1.500253 63.53712 1.876535 18.32207 4.065293 -0 20.43259 -0 0.723525 -12.48808 -0.6251042 -0.09368246 -25.96481 -4.995515 -0 20.17827 -0 -6.149668 -8.21874 20.06711 -1.634947 0.6148731 8.279023 -1.152253 8.673177 -2.320655 2.010652 22.2505 5.917188 2.566616 -18.49922 7.636571 1.1738 -21.11501 10.48199 79.64709 26.73359 -4.731545 -0 0 23.05789 -25.63087 11.98839 14.99717 5.148285 -14.68871 -1.274618 -94.79292 23.48652 26.30785 0 0 -8.001783 -0.8417238 6.940278 14.74851
1627.696 99.29469 2506.001 5.53545 -1.513174 63.51943 1.256313 18.01035 4.170724 -0 27.52595 -0 0.9818946 -9.756545 -0.8288126 -1.076222 -24.4294 -5.838173 -0 19.45596 -0 -6.028382 -8.485225 19.90516 -1.834668 0.48109 8.036781 -1.369749 8.679866 -2.205733 2.089661 22.261 6.104787 2.600303 -18.50196 7.936888 1.25665 -20.78263 10.30432 79.9527 26.40077 -4.599018 -0 0 22.98448 -25.99553 11.86798 15.13427 4.940898 -14.17444 -1.333005 -94.68106 23.27761 26.28241 0 0 -6.661587 -0.681186 6.708669 14.64211
